%TF.GenerationSoftware,KiCad,Pcbnew,(6.0.8)*%
%TF.CreationDate,2022-10-25T11:24:58+02:00*%
%TF.ProjectId,MHI-AC-CTRL,4d48492d-4143-42d4-9354-524c2e6b6963,v2.3*%
%TF.SameCoordinates,Original*%
%TF.FileFunction,Legend,Bot*%
%TF.FilePolarity,Positive*%
%FSLAX46Y46*%
G04 Gerber Fmt 4.6, Leading zero omitted, Abs format (unit mm)*
G04 Created by KiCad (PCBNEW (6.0.8)) date 2022-10-25 11:24:58*
%MOMM*%
%LPD*%
G01*
G04 APERTURE LIST*
G04 Aperture macros list*
%AMRoundRect*
0 Rectangle with rounded corners*
0 $1 Rounding radius*
0 $2 $3 $4 $5 $6 $7 $8 $9 X,Y pos of 4 corners*
0 Add a 4 corners polygon primitive as box body*
4,1,4,$2,$3,$4,$5,$6,$7,$8,$9,$2,$3,0*
0 Add four circle primitives for the rounded corners*
1,1,$1+$1,$2,$3*
1,1,$1+$1,$4,$5*
1,1,$1+$1,$6,$7*
1,1,$1+$1,$8,$9*
0 Add four rect primitives between the rounded corners*
20,1,$1+$1,$2,$3,$4,$5,0*
20,1,$1+$1,$4,$5,$6,$7,0*
20,1,$1+$1,$6,$7,$8,$9,0*
20,1,$1+$1,$8,$9,$2,$3,0*%
G04 Aperture macros list end*
%ADD10C,0.150000*%
%ADD11R,2.500000X1.500000*%
%ADD12O,2.500000X1.500000*%
%ADD13RoundRect,0.250000X-0.725000X0.600000X-0.725000X-0.600000X0.725000X-0.600000X0.725000X0.600000X0*%
%ADD14O,1.950000X1.700000*%
%ADD15R,1.700000X1.700000*%
%ADD16O,1.700000X1.700000*%
%ADD17C,1.700000*%
%ADD18RoundRect,0.250000X0.725000X-0.600000X0.725000X0.600000X-0.725000X0.600000X-0.725000X-0.600000X0*%
%ADD19R,2.000000X2.000000*%
%ADD20O,1.600000X2.000000*%
%ADD21C,1.600000*%
%ADD22O,1.600000X1.600000*%
%ADD23O,2.000000X2.000000*%
G04 APERTURE END LIST*
D10*
X80280000Y-47710000D02*
X86240000Y-47710000D01*
X80280000Y-62820000D02*
X80280000Y-47710000D01*
X85490000Y-61020000D02*
X86230000Y-61010000D01*
X86240000Y-62820000D02*
X80280000Y-62820000D01*
X85490000Y-51020000D02*
X85490000Y-59520000D01*
X86240000Y-47710000D02*
X86240000Y-62820000D01*
X85490000Y-51020000D02*
X86240000Y-51020000D01*
X85490000Y-59520000D02*
X86240000Y-59520000D01*
X85490000Y-61020000D02*
X85490000Y-62820000D01*
X85490000Y-49510000D02*
X86240000Y-49510000D01*
X85490000Y-49510000D02*
X85500000Y-47710000D01*
X118331428Y-51252380D02*
X118331428Y-50252380D01*
X117998095Y-50966666D01*
X117664761Y-50252380D01*
X117664761Y-51252380D01*
X117188571Y-51252380D02*
X117188571Y-50252380D01*
X117188571Y-50728571D02*
X116617142Y-50728571D01*
X116617142Y-51252380D02*
X116617142Y-50252380D01*
X116140952Y-51252380D02*
X116140952Y-50252380D01*
X115664761Y-50871428D02*
X114902857Y-50871428D01*
X114474285Y-50966666D02*
X113998095Y-50966666D01*
X114569523Y-51252380D02*
X114236190Y-50252380D01*
X113902857Y-51252380D01*
X112998095Y-51157142D02*
X113045714Y-51204761D01*
X113188571Y-51252380D01*
X113283809Y-51252380D01*
X113426666Y-51204761D01*
X113521904Y-51109523D01*
X113569523Y-51014285D01*
X113617142Y-50823809D01*
X113617142Y-50680952D01*
X113569523Y-50490476D01*
X113521904Y-50395238D01*
X113426666Y-50300000D01*
X113283809Y-50252380D01*
X113188571Y-50252380D01*
X113045714Y-50300000D01*
X112998095Y-50347619D01*
X112569523Y-50871428D02*
X111807619Y-50871428D01*
X110760000Y-51157142D02*
X110807619Y-51204761D01*
X110950476Y-51252380D01*
X111045714Y-51252380D01*
X111188571Y-51204761D01*
X111283809Y-51109523D01*
X111331428Y-51014285D01*
X111379047Y-50823809D01*
X111379047Y-50680952D01*
X111331428Y-50490476D01*
X111283809Y-50395238D01*
X111188571Y-50300000D01*
X111045714Y-50252380D01*
X110950476Y-50252380D01*
X110807619Y-50300000D01*
X110760000Y-50347619D01*
X110474285Y-50585714D02*
X110093333Y-50585714D01*
X110331428Y-50252380D02*
X110331428Y-51109523D01*
X110283809Y-51204761D01*
X110188571Y-51252380D01*
X110093333Y-51252380D01*
X109760000Y-51252380D02*
X109760000Y-50585714D01*
X109760000Y-50776190D02*
X109712380Y-50680952D01*
X109664761Y-50633333D01*
X109569523Y-50585714D01*
X109474285Y-50585714D01*
X108998095Y-51252380D02*
X109093333Y-51204761D01*
X109140952Y-51109523D01*
X109140952Y-50252380D01*
X107950476Y-50585714D02*
X107712380Y-51252380D01*
X107474285Y-50585714D01*
X107140952Y-50347619D02*
X107093333Y-50300000D01*
X106998095Y-50252380D01*
X106760000Y-50252380D01*
X106664761Y-50300000D01*
X106617142Y-50347619D01*
X106569523Y-50442857D01*
X106569523Y-50538095D01*
X106617142Y-50680952D01*
X107188571Y-51252380D01*
X106569523Y-51252380D01*
X106140952Y-51157142D02*
X106093333Y-51204761D01*
X106140952Y-51252380D01*
X106188571Y-51204761D01*
X106140952Y-51157142D01*
X106140952Y-51252380D01*
X105760000Y-50252380D02*
X105140952Y-50252380D01*
X105474285Y-50633333D01*
X105331428Y-50633333D01*
X105236190Y-50680952D01*
X105188571Y-50728571D01*
X105140952Y-50823809D01*
X105140952Y-51061904D01*
X105188571Y-51157142D01*
X105236190Y-51204761D01*
X105331428Y-51252380D01*
X105617142Y-51252380D01*
X105712380Y-51204761D01*
X105760000Y-51157142D01*
X115204285Y-52792380D02*
X115013809Y-52792380D01*
X114918571Y-52840000D01*
X114823333Y-52935238D01*
X114775714Y-53125714D01*
X114775714Y-53459047D01*
X114823333Y-53649523D01*
X114918571Y-53744761D01*
X115013809Y-53792380D01*
X115204285Y-53792380D01*
X115299523Y-53744761D01*
X115394761Y-53649523D01*
X115442380Y-53459047D01*
X115442380Y-53125714D01*
X115394761Y-52935238D01*
X115299523Y-52840000D01*
X115204285Y-52792380D01*
X114347142Y-53792380D02*
X114347142Y-52792380D01*
X114251904Y-53411428D02*
X113966190Y-53792380D01*
X113966190Y-53125714D02*
X114347142Y-53506666D01*
X113680476Y-53125714D02*
X113299523Y-53125714D01*
X113537619Y-52792380D02*
X113537619Y-53649523D01*
X113490000Y-53744761D01*
X113394761Y-53792380D01*
X113299523Y-53792380D01*
X112823333Y-53792380D02*
X112918571Y-53744761D01*
X112966190Y-53697142D01*
X113013809Y-53601904D01*
X113013809Y-53316190D01*
X112966190Y-53220952D01*
X112918571Y-53173333D01*
X112823333Y-53125714D01*
X112680476Y-53125714D01*
X112585238Y-53173333D01*
X112537619Y-53220952D01*
X112490000Y-53316190D01*
X112490000Y-53601904D01*
X112537619Y-53697142D01*
X112585238Y-53744761D01*
X112680476Y-53792380D01*
X112823333Y-53792380D01*
X112061428Y-53792380D02*
X112061428Y-52792380D01*
X112061428Y-53173333D02*
X111966190Y-53125714D01*
X111775714Y-53125714D01*
X111680476Y-53173333D01*
X111632857Y-53220952D01*
X111585238Y-53316190D01*
X111585238Y-53601904D01*
X111632857Y-53697142D01*
X111680476Y-53744761D01*
X111775714Y-53792380D01*
X111966190Y-53792380D01*
X112061428Y-53744761D01*
X110775714Y-53744761D02*
X110870952Y-53792380D01*
X111061428Y-53792380D01*
X111156666Y-53744761D01*
X111204285Y-53649523D01*
X111204285Y-53268571D01*
X111156666Y-53173333D01*
X111061428Y-53125714D01*
X110870952Y-53125714D01*
X110775714Y-53173333D01*
X110728095Y-53268571D01*
X110728095Y-53363809D01*
X111204285Y-53459047D01*
X110299523Y-53792380D02*
X110299523Y-53125714D01*
X110299523Y-53316190D02*
X110251904Y-53220952D01*
X110204285Y-53173333D01*
X110109047Y-53125714D01*
X110013809Y-53125714D01*
X108966190Y-52887619D02*
X108918571Y-52840000D01*
X108823333Y-52792380D01*
X108585238Y-52792380D01*
X108490000Y-52840000D01*
X108442380Y-52887619D01*
X108394761Y-52982857D01*
X108394761Y-53078095D01*
X108442380Y-53220952D01*
X109013809Y-53792380D01*
X108394761Y-53792380D01*
X107775714Y-52792380D02*
X107680476Y-52792380D01*
X107585238Y-52840000D01*
X107537619Y-52887619D01*
X107490000Y-52982857D01*
X107442380Y-53173333D01*
X107442380Y-53411428D01*
X107490000Y-53601904D01*
X107537619Y-53697142D01*
X107585238Y-53744761D01*
X107680476Y-53792380D01*
X107775714Y-53792380D01*
X107870952Y-53744761D01*
X107918571Y-53697142D01*
X107966190Y-53601904D01*
X108013809Y-53411428D01*
X108013809Y-53173333D01*
X107966190Y-52982857D01*
X107918571Y-52887619D01*
X107870952Y-52840000D01*
X107775714Y-52792380D01*
X107061428Y-52887619D02*
X107013809Y-52840000D01*
X106918571Y-52792380D01*
X106680476Y-52792380D01*
X106585238Y-52840000D01*
X106537619Y-52887619D01*
X106490000Y-52982857D01*
X106490000Y-53078095D01*
X106537619Y-53220952D01*
X107109047Y-53792380D01*
X106490000Y-53792380D01*
X106109047Y-52887619D02*
X106061428Y-52840000D01*
X105966190Y-52792380D01*
X105728095Y-52792380D01*
X105632857Y-52840000D01*
X105585238Y-52887619D01*
X105537619Y-52982857D01*
X105537619Y-53078095D01*
X105585238Y-53220952D01*
X106156666Y-53792380D01*
X105537619Y-53792380D01*
%LPC*%
D11*
%TO.C,U1*%
X99669600Y-55270400D03*
D12*
X99669600Y-52730400D03*
X99669600Y-50190400D03*
%TD*%
D13*
%TO.C,J1*%
X83786200Y-50270400D03*
D14*
X83786200Y-52770400D03*
X83786200Y-55270400D03*
X83786200Y-57770400D03*
X83786200Y-60270400D03*
%TD*%
D15*
%TO.C,U3*%
X104140000Y-46990000D03*
D16*
X106680000Y-46990000D03*
X109220000Y-46990000D03*
X111760000Y-46990000D03*
X114300000Y-46990000D03*
X116840000Y-46990000D03*
D17*
X104140000Y-57150000D03*
D16*
X106680000Y-57150000D03*
X109220000Y-57150000D03*
X111760000Y-57150000D03*
X114300000Y-57150000D03*
X116840000Y-57150000D03*
%TD*%
D18*
%TO.C,J3*%
X84323600Y-44450000D03*
D14*
X84323600Y-41950000D03*
X84323600Y-39450000D03*
%TD*%
D19*
%TO.C,U2*%
X93980000Y-62230000D03*
D20*
X96520000Y-62230000D03*
X99060000Y-62230000D03*
X101600000Y-62230000D03*
X104140000Y-62230000D03*
X106680000Y-62230000D03*
X109220000Y-62230000D03*
X111760000Y-62230000D03*
X111760000Y-39370000D03*
X109220000Y-39370000D03*
X106680000Y-39370000D03*
X104140000Y-39370000D03*
X101600000Y-39370000D03*
X99060000Y-39370000D03*
X96520000Y-39370000D03*
X93980000Y-39370000D03*
%TD*%
D21*
%TO.C,C3*%
X111760000Y-43180000D03*
X109260000Y-43180000D03*
%TD*%
%TO.C,R1*%
X93980000Y-43815000D03*
D22*
X104140000Y-43815000D03*
%TD*%
D19*
%TO.C,C1*%
X90119200Y-41979200D03*
D23*
X90119200Y-56979200D03*
%TD*%
D21*
%TO.C,C2*%
X87630000Y-60401200D03*
X90130000Y-60401200D03*
%TD*%
M02*
