%TF.GenerationSoftware,KiCad,Pcbnew,(6.0.8)*%
%TF.CreationDate,2022-10-25T11:26:18+02:00*%
%TF.ProjectId,MHI-AC-CTRL,4d48492d-4143-42d4-9354-524c2e6b6963,v2.3*%
%TF.SameCoordinates,Original*%
%TF.FileFunction,Drillmap*%
%TF.FilePolarity,Positive*%
%FSLAX45Y45*%
G04 Gerber Fmt 4.5, Leading zero omitted, Abs format (unit mm)*
G04 Created by KiCad (PCBNEW (6.0.8)) date 2022-10-25 11:26:18*
%MOMM*%
%LPD*%
G01*
G04 APERTURE LIST*
%ADD10C,0.100000*%
%ADD11C,0.200000*%
%ADD12C,0.080000*%
%ADD13C,0.095000*%
G04 APERTURE END LIST*
D10*
X12115800Y-6426200D02*
X7924800Y-6426200D01*
X7924800Y-3708400D02*
X12115800Y-3708400D01*
X7924800Y-6426200D02*
X7924800Y-3708400D01*
X12115800Y-3708400D02*
X12115800Y-6426200D01*
D11*
D12*
X8723000Y-6000120D02*
X8803000Y-6080120D01*
X8803000Y-6000120D02*
X8723000Y-6080120D01*
X8973000Y-6000120D02*
X9053000Y-6080120D01*
X9053000Y-6000120D02*
X8973000Y-6080120D01*
X9358000Y-4341500D02*
X9438000Y-4421500D01*
X9438000Y-4341500D02*
X9358000Y-4421500D01*
X10374000Y-4341500D02*
X10454000Y-4421500D01*
X10454000Y-4341500D02*
X10374000Y-4421500D01*
X10886000Y-4278000D02*
X10966000Y-4358000D01*
X10966000Y-4278000D02*
X10886000Y-4358000D01*
X11136000Y-4278000D02*
X11216000Y-4358000D01*
X11216000Y-4278000D02*
X11136000Y-4358000D01*
D13*
X8426120Y-5027040D02*
G75*
G03*
X8426120Y-5027040I-47500J0D01*
G01*
X8426120Y-5277040D02*
G75*
G03*
X8426120Y-5277040I-47500J0D01*
G01*
X8426120Y-5527040D02*
G75*
G03*
X8426120Y-5527040I-47500J0D01*
G01*
X8426120Y-5777040D02*
G75*
G03*
X8426120Y-5777040I-47500J0D01*
G01*
X8426120Y-6027040D02*
G75*
G03*
X8426120Y-6027040I-47500J0D01*
G01*
X8479860Y-3945000D02*
G75*
G03*
X8479860Y-3945000I-47500J0D01*
G01*
X8479860Y-4195000D02*
G75*
G03*
X8479860Y-4195000I-47500J0D01*
G01*
X8479860Y-4445000D02*
G75*
G03*
X8479860Y-4445000I-47500J0D01*
G01*
D10*
X9011920Y-4147920D02*
X9011920Y-4247920D01*
X8961920Y-4197920D02*
X9061920Y-4197920D01*
X9011920Y-5647920D02*
X9011920Y-5747920D01*
X8961920Y-5697920D02*
X9061920Y-5697920D01*
X9398000Y-3887000D02*
X9398000Y-3987000D01*
X9348000Y-3937000D02*
X9448000Y-3937000D01*
X9398000Y-6173000D02*
X9398000Y-6273000D01*
X9348000Y-6223000D02*
X9448000Y-6223000D01*
X9652000Y-3887000D02*
X9652000Y-3987000D01*
X9602000Y-3937000D02*
X9702000Y-3937000D01*
X9652000Y-6173000D02*
X9652000Y-6273000D01*
X9602000Y-6223000D02*
X9702000Y-6223000D01*
X9906000Y-3887000D02*
X9906000Y-3987000D01*
X9856000Y-3937000D02*
X9956000Y-3937000D01*
X9906000Y-6173000D02*
X9906000Y-6273000D01*
X9856000Y-6223000D02*
X9956000Y-6223000D01*
X9966960Y-4969040D02*
X9966960Y-5069040D01*
X9916960Y-5019040D02*
X10016960Y-5019040D01*
X9966960Y-5223040D02*
X9966960Y-5323040D01*
X9916960Y-5273040D02*
X10016960Y-5273040D01*
X9966960Y-5477040D02*
X9966960Y-5577040D01*
X9916960Y-5527040D02*
X10016960Y-5527040D01*
X10160000Y-3887000D02*
X10160000Y-3987000D01*
X10110000Y-3937000D02*
X10210000Y-3937000D01*
X10160000Y-6173000D02*
X10160000Y-6273000D01*
X10110000Y-6223000D02*
X10210000Y-6223000D01*
X10414000Y-3887000D02*
X10414000Y-3987000D01*
X10364000Y-3937000D02*
X10464000Y-3937000D01*
X10414000Y-4649000D02*
X10414000Y-4749000D01*
X10364000Y-4699000D02*
X10464000Y-4699000D01*
X10414000Y-5665000D02*
X10414000Y-5765000D01*
X10364000Y-5715000D02*
X10464000Y-5715000D01*
X10414000Y-6173000D02*
X10414000Y-6273000D01*
X10364000Y-6223000D02*
X10464000Y-6223000D01*
X10668000Y-3887000D02*
X10668000Y-3987000D01*
X10618000Y-3937000D02*
X10718000Y-3937000D01*
X10668000Y-4649000D02*
X10668000Y-4749000D01*
X10618000Y-4699000D02*
X10718000Y-4699000D01*
X10668000Y-5665000D02*
X10668000Y-5765000D01*
X10618000Y-5715000D02*
X10718000Y-5715000D01*
X10668000Y-6173000D02*
X10668000Y-6273000D01*
X10618000Y-6223000D02*
X10718000Y-6223000D01*
X10922000Y-3887000D02*
X10922000Y-3987000D01*
X10872000Y-3937000D02*
X10972000Y-3937000D01*
X10922000Y-4649000D02*
X10922000Y-4749000D01*
X10872000Y-4699000D02*
X10972000Y-4699000D01*
X10922000Y-5665000D02*
X10922000Y-5765000D01*
X10872000Y-5715000D02*
X10972000Y-5715000D01*
X10922000Y-6173000D02*
X10922000Y-6273000D01*
X10872000Y-6223000D02*
X10972000Y-6223000D01*
X11176000Y-3887000D02*
X11176000Y-3987000D01*
X11126000Y-3937000D02*
X11226000Y-3937000D01*
X11176000Y-4649000D02*
X11176000Y-4749000D01*
X11126000Y-4699000D02*
X11226000Y-4699000D01*
X11176000Y-5665000D02*
X11176000Y-5765000D01*
X11126000Y-5715000D02*
X11226000Y-5715000D01*
X11176000Y-6173000D02*
X11176000Y-6273000D01*
X11126000Y-6223000D02*
X11226000Y-6223000D01*
X11430000Y-4649000D02*
X11430000Y-4749000D01*
X11380000Y-4699000D02*
X11480000Y-4699000D01*
X11430000Y-5665000D02*
X11430000Y-5765000D01*
X11380000Y-5715000D02*
X11480000Y-5715000D01*
X11684000Y-4649000D02*
X11684000Y-4749000D01*
X11634000Y-4699000D02*
X11734000Y-4699000D01*
X11684000Y-5665000D02*
X11684000Y-5765000D01*
X11634000Y-5715000D02*
X11734000Y-5715000D01*
D11*
X8177419Y-6741676D02*
X8177419Y-6541676D01*
X8225038Y-6541676D01*
X8253609Y-6551200D01*
X8272657Y-6570248D01*
X8282181Y-6589295D01*
X8291705Y-6627390D01*
X8291705Y-6655962D01*
X8282181Y-6694057D01*
X8272657Y-6713105D01*
X8253609Y-6732152D01*
X8225038Y-6741676D01*
X8177419Y-6741676D01*
X8377419Y-6741676D02*
X8377419Y-6608343D01*
X8377419Y-6646438D02*
X8386943Y-6627390D01*
X8396467Y-6617867D01*
X8415514Y-6608343D01*
X8434562Y-6608343D01*
X8501229Y-6741676D02*
X8501229Y-6608343D01*
X8501229Y-6541676D02*
X8491705Y-6551200D01*
X8501229Y-6560724D01*
X8510752Y-6551200D01*
X8501229Y-6541676D01*
X8501229Y-6560724D01*
X8625038Y-6741676D02*
X8605990Y-6732152D01*
X8596467Y-6713105D01*
X8596467Y-6541676D01*
X8729800Y-6741676D02*
X8710752Y-6732152D01*
X8701229Y-6713105D01*
X8701229Y-6541676D01*
X8958371Y-6741676D02*
X8958371Y-6541676D01*
X9025038Y-6684533D01*
X9091705Y-6541676D01*
X9091705Y-6741676D01*
X9272657Y-6741676D02*
X9272657Y-6636914D01*
X9263133Y-6617867D01*
X9244086Y-6608343D01*
X9205990Y-6608343D01*
X9186943Y-6617867D01*
X9272657Y-6732152D02*
X9253610Y-6741676D01*
X9205990Y-6741676D01*
X9186943Y-6732152D01*
X9177419Y-6713105D01*
X9177419Y-6694057D01*
X9186943Y-6675009D01*
X9205990Y-6665486D01*
X9253610Y-6665486D01*
X9272657Y-6655962D01*
X9367895Y-6608343D02*
X9367895Y-6808343D01*
X9367895Y-6617867D02*
X9386943Y-6608343D01*
X9425038Y-6608343D01*
X9444086Y-6617867D01*
X9453610Y-6627390D01*
X9463133Y-6646438D01*
X9463133Y-6703581D01*
X9453610Y-6722628D01*
X9444086Y-6732152D01*
X9425038Y-6741676D01*
X9386943Y-6741676D01*
X9367895Y-6732152D01*
X9548848Y-6722628D02*
X9558371Y-6732152D01*
X9548848Y-6741676D01*
X9539324Y-6732152D01*
X9548848Y-6722628D01*
X9548848Y-6741676D01*
X9548848Y-6617867D02*
X9558371Y-6627390D01*
X9548848Y-6636914D01*
X9539324Y-6627390D01*
X9548848Y-6617867D01*
X9548848Y-6636914D01*
D12*
X7839800Y-7031200D02*
X7919800Y-7111200D01*
X7919800Y-7031200D02*
X7839800Y-7111200D01*
D11*
X8215514Y-6961676D02*
X8234562Y-6961676D01*
X8253609Y-6971200D01*
X8263133Y-6980724D01*
X8272657Y-6999771D01*
X8282181Y-7037867D01*
X8282181Y-7085486D01*
X8272657Y-7123581D01*
X8263133Y-7142628D01*
X8253609Y-7152152D01*
X8234562Y-7161676D01*
X8215514Y-7161676D01*
X8196467Y-7152152D01*
X8186943Y-7142628D01*
X8177419Y-7123581D01*
X8167895Y-7085486D01*
X8167895Y-7037867D01*
X8177419Y-6999771D01*
X8186943Y-6980724D01*
X8196467Y-6971200D01*
X8215514Y-6961676D01*
X8367895Y-7142628D02*
X8377419Y-7152152D01*
X8367895Y-7161676D01*
X8358371Y-7152152D01*
X8367895Y-7142628D01*
X8367895Y-7161676D01*
X8491705Y-7047390D02*
X8472657Y-7037867D01*
X8463133Y-7028343D01*
X8453610Y-7009295D01*
X8453610Y-6999771D01*
X8463133Y-6980724D01*
X8472657Y-6971200D01*
X8491705Y-6961676D01*
X8529800Y-6961676D01*
X8548848Y-6971200D01*
X8558371Y-6980724D01*
X8567895Y-6999771D01*
X8567895Y-7009295D01*
X8558371Y-7028343D01*
X8548848Y-7037867D01*
X8529800Y-7047390D01*
X8491705Y-7047390D01*
X8472657Y-7056914D01*
X8463133Y-7066438D01*
X8453610Y-7085486D01*
X8453610Y-7123581D01*
X8463133Y-7142628D01*
X8472657Y-7152152D01*
X8491705Y-7161676D01*
X8529800Y-7161676D01*
X8548848Y-7152152D01*
X8558371Y-7142628D01*
X8567895Y-7123581D01*
X8567895Y-7085486D01*
X8558371Y-7066438D01*
X8548848Y-7056914D01*
X8529800Y-7047390D01*
X8691705Y-6961676D02*
X8710752Y-6961676D01*
X8729800Y-6971200D01*
X8739324Y-6980724D01*
X8748848Y-6999771D01*
X8758371Y-7037867D01*
X8758371Y-7085486D01*
X8748848Y-7123581D01*
X8739324Y-7142628D01*
X8729800Y-7152152D01*
X8710752Y-7161676D01*
X8691705Y-7161676D01*
X8672657Y-7152152D01*
X8663133Y-7142628D01*
X8653610Y-7123581D01*
X8644086Y-7085486D01*
X8644086Y-7037867D01*
X8653610Y-6999771D01*
X8663133Y-6980724D01*
X8672657Y-6971200D01*
X8691705Y-6961676D01*
X8882181Y-6961676D02*
X8901229Y-6961676D01*
X8920276Y-6971200D01*
X8929800Y-6980724D01*
X8939324Y-6999771D01*
X8948848Y-7037867D01*
X8948848Y-7085486D01*
X8939324Y-7123581D01*
X8929800Y-7142628D01*
X8920276Y-7152152D01*
X8901229Y-7161676D01*
X8882181Y-7161676D01*
X8863133Y-7152152D01*
X8853610Y-7142628D01*
X8844086Y-7123581D01*
X8834562Y-7085486D01*
X8834562Y-7037867D01*
X8844086Y-6999771D01*
X8853610Y-6980724D01*
X8863133Y-6971200D01*
X8882181Y-6961676D01*
X9034562Y-7161676D02*
X9034562Y-7028343D01*
X9034562Y-7047390D02*
X9044086Y-7037867D01*
X9063133Y-7028343D01*
X9091705Y-7028343D01*
X9110752Y-7037867D01*
X9120276Y-7056914D01*
X9120276Y-7161676D01*
X9120276Y-7056914D02*
X9129800Y-7037867D01*
X9148848Y-7028343D01*
X9177419Y-7028343D01*
X9196467Y-7037867D01*
X9205990Y-7056914D01*
X9205990Y-7161676D01*
X9301229Y-7161676D02*
X9301229Y-7028343D01*
X9301229Y-7047390D02*
X9310752Y-7037867D01*
X9329800Y-7028343D01*
X9358371Y-7028343D01*
X9377419Y-7037867D01*
X9386943Y-7056914D01*
X9386943Y-7161676D01*
X9386943Y-7056914D02*
X9396467Y-7037867D01*
X9415514Y-7028343D01*
X9444086Y-7028343D01*
X9463133Y-7037867D01*
X9472657Y-7056914D01*
X9472657Y-7161676D01*
X9863133Y-6952152D02*
X9691705Y-7209295D01*
X10120276Y-6961676D02*
X10139324Y-6961676D01*
X10158371Y-6971200D01*
X10167895Y-6980724D01*
X10177419Y-6999771D01*
X10186943Y-7037867D01*
X10186943Y-7085486D01*
X10177419Y-7123581D01*
X10167895Y-7142628D01*
X10158371Y-7152152D01*
X10139324Y-7161676D01*
X10120276Y-7161676D01*
X10101229Y-7152152D01*
X10091705Y-7142628D01*
X10082181Y-7123581D01*
X10072657Y-7085486D01*
X10072657Y-7037867D01*
X10082181Y-6999771D01*
X10091705Y-6980724D01*
X10101229Y-6971200D01*
X10120276Y-6961676D01*
X10272657Y-7142628D02*
X10282181Y-7152152D01*
X10272657Y-7161676D01*
X10263133Y-7152152D01*
X10272657Y-7142628D01*
X10272657Y-7161676D01*
X10405990Y-6961676D02*
X10425038Y-6961676D01*
X10444086Y-6971200D01*
X10453610Y-6980724D01*
X10463133Y-6999771D01*
X10472657Y-7037867D01*
X10472657Y-7085486D01*
X10463133Y-7123581D01*
X10453610Y-7142628D01*
X10444086Y-7152152D01*
X10425038Y-7161676D01*
X10405990Y-7161676D01*
X10386943Y-7152152D01*
X10377419Y-7142628D01*
X10367895Y-7123581D01*
X10358371Y-7085486D01*
X10358371Y-7037867D01*
X10367895Y-6999771D01*
X10377419Y-6980724D01*
X10386943Y-6971200D01*
X10405990Y-6961676D01*
X10539324Y-6961676D02*
X10663133Y-6961676D01*
X10596467Y-7037867D01*
X10625038Y-7037867D01*
X10644086Y-7047390D01*
X10653610Y-7056914D01*
X10663133Y-7075962D01*
X10663133Y-7123581D01*
X10653610Y-7142628D01*
X10644086Y-7152152D01*
X10625038Y-7161676D01*
X10567895Y-7161676D01*
X10548848Y-7152152D01*
X10539324Y-7142628D01*
X10853610Y-7161676D02*
X10739324Y-7161676D01*
X10796467Y-7161676D02*
X10796467Y-6961676D01*
X10777419Y-6990248D01*
X10758371Y-7009295D01*
X10739324Y-7018819D01*
X11034562Y-6961676D02*
X10939324Y-6961676D01*
X10929800Y-7056914D01*
X10939324Y-7047390D01*
X10958371Y-7037867D01*
X11005990Y-7037867D01*
X11025038Y-7047390D01*
X11034562Y-7056914D01*
X11044086Y-7075962D01*
X11044086Y-7123581D01*
X11034562Y-7142628D01*
X11025038Y-7152152D01*
X11005990Y-7161676D01*
X10958371Y-7161676D01*
X10939324Y-7152152D01*
X10929800Y-7142628D01*
X11120276Y-6961676D02*
X11120276Y-6999771D01*
X11196467Y-6961676D02*
X11196467Y-6999771D01*
X11491705Y-7237867D02*
X11482181Y-7228343D01*
X11463133Y-7199771D01*
X11453609Y-7180724D01*
X11444086Y-7152152D01*
X11434562Y-7104533D01*
X11434562Y-7066438D01*
X11444086Y-7018819D01*
X11453609Y-6990248D01*
X11463133Y-6971200D01*
X11482181Y-6942628D01*
X11491705Y-6933105D01*
X11653609Y-6961676D02*
X11615514Y-6961676D01*
X11596467Y-6971200D01*
X11586943Y-6980724D01*
X11567895Y-7009295D01*
X11558371Y-7047390D01*
X11558371Y-7123581D01*
X11567895Y-7142628D01*
X11577419Y-7152152D01*
X11596467Y-7161676D01*
X11634562Y-7161676D01*
X11653609Y-7152152D01*
X11663133Y-7142628D01*
X11672657Y-7123581D01*
X11672657Y-7075962D01*
X11663133Y-7056914D01*
X11653609Y-7047390D01*
X11634562Y-7037867D01*
X11596467Y-7037867D01*
X11577419Y-7047390D01*
X11567895Y-7056914D01*
X11558371Y-7075962D01*
X11910752Y-7161676D02*
X11910752Y-6961676D01*
X11996467Y-7161676D02*
X11996467Y-7056914D01*
X11986943Y-7037867D01*
X11967895Y-7028343D01*
X11939324Y-7028343D01*
X11920276Y-7037867D01*
X11910752Y-7047390D01*
X12120276Y-7161676D02*
X12101228Y-7152152D01*
X12091705Y-7142628D01*
X12082181Y-7123581D01*
X12082181Y-7066438D01*
X12091705Y-7047390D01*
X12101228Y-7037867D01*
X12120276Y-7028343D01*
X12148848Y-7028343D01*
X12167895Y-7037867D01*
X12177419Y-7047390D01*
X12186943Y-7066438D01*
X12186943Y-7123581D01*
X12177419Y-7142628D01*
X12167895Y-7152152D01*
X12148848Y-7161676D01*
X12120276Y-7161676D01*
X12301228Y-7161676D02*
X12282181Y-7152152D01*
X12272657Y-7133105D01*
X12272657Y-6961676D01*
X12453609Y-7152152D02*
X12434562Y-7161676D01*
X12396467Y-7161676D01*
X12377419Y-7152152D01*
X12367895Y-7133105D01*
X12367895Y-7056914D01*
X12377419Y-7037867D01*
X12396467Y-7028343D01*
X12434562Y-7028343D01*
X12453609Y-7037867D01*
X12463133Y-7056914D01*
X12463133Y-7075962D01*
X12367895Y-7095009D01*
X12539324Y-7152152D02*
X12558371Y-7161676D01*
X12596467Y-7161676D01*
X12615514Y-7152152D01*
X12625038Y-7133105D01*
X12625038Y-7123581D01*
X12615514Y-7104533D01*
X12596467Y-7095009D01*
X12567895Y-7095009D01*
X12548848Y-7085486D01*
X12539324Y-7066438D01*
X12539324Y-7056914D01*
X12548848Y-7037867D01*
X12567895Y-7028343D01*
X12596467Y-7028343D01*
X12615514Y-7037867D01*
X12691705Y-7237867D02*
X12701228Y-7228343D01*
X12720276Y-7199771D01*
X12729800Y-7180724D01*
X12739324Y-7152152D01*
X12748848Y-7104533D01*
X12748848Y-7066438D01*
X12739324Y-7018819D01*
X12729800Y-6990248D01*
X12720276Y-6971200D01*
X12701228Y-6942628D01*
X12691705Y-6933105D01*
D13*
X7919800Y-7335200D02*
G75*
G03*
X7919800Y-7335200I-47500J0D01*
G01*
D11*
X8215514Y-7225676D02*
X8234562Y-7225676D01*
X8253609Y-7235200D01*
X8263133Y-7244724D01*
X8272657Y-7263771D01*
X8282181Y-7301867D01*
X8282181Y-7349486D01*
X8272657Y-7387581D01*
X8263133Y-7406628D01*
X8253609Y-7416152D01*
X8234562Y-7425676D01*
X8215514Y-7425676D01*
X8196467Y-7416152D01*
X8186943Y-7406628D01*
X8177419Y-7387581D01*
X8167895Y-7349486D01*
X8167895Y-7301867D01*
X8177419Y-7263771D01*
X8186943Y-7244724D01*
X8196467Y-7235200D01*
X8215514Y-7225676D01*
X8367895Y-7406628D02*
X8377419Y-7416152D01*
X8367895Y-7425676D01*
X8358371Y-7416152D01*
X8367895Y-7406628D01*
X8367895Y-7425676D01*
X8472657Y-7425676D02*
X8510752Y-7425676D01*
X8529800Y-7416152D01*
X8539324Y-7406628D01*
X8558371Y-7378057D01*
X8567895Y-7339962D01*
X8567895Y-7263771D01*
X8558371Y-7244724D01*
X8548848Y-7235200D01*
X8529800Y-7225676D01*
X8491705Y-7225676D01*
X8472657Y-7235200D01*
X8463133Y-7244724D01*
X8453610Y-7263771D01*
X8453610Y-7311390D01*
X8463133Y-7330438D01*
X8472657Y-7339962D01*
X8491705Y-7349486D01*
X8529800Y-7349486D01*
X8548848Y-7339962D01*
X8558371Y-7330438D01*
X8567895Y-7311390D01*
X8748848Y-7225676D02*
X8653610Y-7225676D01*
X8644086Y-7320914D01*
X8653610Y-7311390D01*
X8672657Y-7301867D01*
X8720276Y-7301867D01*
X8739324Y-7311390D01*
X8748848Y-7320914D01*
X8758371Y-7339962D01*
X8758371Y-7387581D01*
X8748848Y-7406628D01*
X8739324Y-7416152D01*
X8720276Y-7425676D01*
X8672657Y-7425676D01*
X8653610Y-7416152D01*
X8644086Y-7406628D01*
X8882181Y-7225676D02*
X8901229Y-7225676D01*
X8920276Y-7235200D01*
X8929800Y-7244724D01*
X8939324Y-7263771D01*
X8948848Y-7301867D01*
X8948848Y-7349486D01*
X8939324Y-7387581D01*
X8929800Y-7406628D01*
X8920276Y-7416152D01*
X8901229Y-7425676D01*
X8882181Y-7425676D01*
X8863133Y-7416152D01*
X8853610Y-7406628D01*
X8844086Y-7387581D01*
X8834562Y-7349486D01*
X8834562Y-7301867D01*
X8844086Y-7263771D01*
X8853610Y-7244724D01*
X8863133Y-7235200D01*
X8882181Y-7225676D01*
X9034562Y-7425676D02*
X9034562Y-7292343D01*
X9034562Y-7311390D02*
X9044086Y-7301867D01*
X9063133Y-7292343D01*
X9091705Y-7292343D01*
X9110752Y-7301867D01*
X9120276Y-7320914D01*
X9120276Y-7425676D01*
X9120276Y-7320914D02*
X9129800Y-7301867D01*
X9148848Y-7292343D01*
X9177419Y-7292343D01*
X9196467Y-7301867D01*
X9205990Y-7320914D01*
X9205990Y-7425676D01*
X9301229Y-7425676D02*
X9301229Y-7292343D01*
X9301229Y-7311390D02*
X9310752Y-7301867D01*
X9329800Y-7292343D01*
X9358371Y-7292343D01*
X9377419Y-7301867D01*
X9386943Y-7320914D01*
X9386943Y-7425676D01*
X9386943Y-7320914D02*
X9396467Y-7301867D01*
X9415514Y-7292343D01*
X9444086Y-7292343D01*
X9463133Y-7301867D01*
X9472657Y-7320914D01*
X9472657Y-7425676D01*
X9863133Y-7216152D02*
X9691705Y-7473295D01*
X10120276Y-7225676D02*
X10139324Y-7225676D01*
X10158371Y-7235200D01*
X10167895Y-7244724D01*
X10177419Y-7263771D01*
X10186943Y-7301867D01*
X10186943Y-7349486D01*
X10177419Y-7387581D01*
X10167895Y-7406628D01*
X10158371Y-7416152D01*
X10139324Y-7425676D01*
X10120276Y-7425676D01*
X10101229Y-7416152D01*
X10091705Y-7406628D01*
X10082181Y-7387581D01*
X10072657Y-7349486D01*
X10072657Y-7301867D01*
X10082181Y-7263771D01*
X10091705Y-7244724D01*
X10101229Y-7235200D01*
X10120276Y-7225676D01*
X10272657Y-7406628D02*
X10282181Y-7416152D01*
X10272657Y-7425676D01*
X10263133Y-7416152D01*
X10272657Y-7406628D01*
X10272657Y-7425676D01*
X10405990Y-7225676D02*
X10425038Y-7225676D01*
X10444086Y-7235200D01*
X10453610Y-7244724D01*
X10463133Y-7263771D01*
X10472657Y-7301867D01*
X10472657Y-7349486D01*
X10463133Y-7387581D01*
X10453610Y-7406628D01*
X10444086Y-7416152D01*
X10425038Y-7425676D01*
X10405990Y-7425676D01*
X10386943Y-7416152D01*
X10377419Y-7406628D01*
X10367895Y-7387581D01*
X10358371Y-7349486D01*
X10358371Y-7301867D01*
X10367895Y-7263771D01*
X10377419Y-7244724D01*
X10386943Y-7235200D01*
X10405990Y-7225676D01*
X10539324Y-7225676D02*
X10663133Y-7225676D01*
X10596467Y-7301867D01*
X10625038Y-7301867D01*
X10644086Y-7311390D01*
X10653610Y-7320914D01*
X10663133Y-7339962D01*
X10663133Y-7387581D01*
X10653610Y-7406628D01*
X10644086Y-7416152D01*
X10625038Y-7425676D01*
X10567895Y-7425676D01*
X10548848Y-7416152D01*
X10539324Y-7406628D01*
X10729800Y-7225676D02*
X10863133Y-7225676D01*
X10777419Y-7425676D01*
X11025038Y-7292343D02*
X11025038Y-7425676D01*
X10977419Y-7216152D02*
X10929800Y-7359009D01*
X11053610Y-7359009D01*
X11120276Y-7225676D02*
X11120276Y-7263771D01*
X11196467Y-7225676D02*
X11196467Y-7263771D01*
X11491705Y-7501867D02*
X11482181Y-7492343D01*
X11463133Y-7463771D01*
X11453609Y-7444724D01*
X11444086Y-7416152D01*
X11434562Y-7368533D01*
X11434562Y-7330438D01*
X11444086Y-7282819D01*
X11453609Y-7254248D01*
X11463133Y-7235200D01*
X11482181Y-7206628D01*
X11491705Y-7197105D01*
X11596467Y-7311390D02*
X11577419Y-7301867D01*
X11567895Y-7292343D01*
X11558371Y-7273295D01*
X11558371Y-7263771D01*
X11567895Y-7244724D01*
X11577419Y-7235200D01*
X11596467Y-7225676D01*
X11634562Y-7225676D01*
X11653609Y-7235200D01*
X11663133Y-7244724D01*
X11672657Y-7263771D01*
X11672657Y-7273295D01*
X11663133Y-7292343D01*
X11653609Y-7301867D01*
X11634562Y-7311390D01*
X11596467Y-7311390D01*
X11577419Y-7320914D01*
X11567895Y-7330438D01*
X11558371Y-7349486D01*
X11558371Y-7387581D01*
X11567895Y-7406628D01*
X11577419Y-7416152D01*
X11596467Y-7425676D01*
X11634562Y-7425676D01*
X11653609Y-7416152D01*
X11663133Y-7406628D01*
X11672657Y-7387581D01*
X11672657Y-7349486D01*
X11663133Y-7330438D01*
X11653609Y-7320914D01*
X11634562Y-7311390D01*
X11910752Y-7425676D02*
X11910752Y-7225676D01*
X11996467Y-7425676D02*
X11996467Y-7320914D01*
X11986943Y-7301867D01*
X11967895Y-7292343D01*
X11939324Y-7292343D01*
X11920276Y-7301867D01*
X11910752Y-7311390D01*
X12120276Y-7425676D02*
X12101228Y-7416152D01*
X12091705Y-7406628D01*
X12082181Y-7387581D01*
X12082181Y-7330438D01*
X12091705Y-7311390D01*
X12101228Y-7301867D01*
X12120276Y-7292343D01*
X12148848Y-7292343D01*
X12167895Y-7301867D01*
X12177419Y-7311390D01*
X12186943Y-7330438D01*
X12186943Y-7387581D01*
X12177419Y-7406628D01*
X12167895Y-7416152D01*
X12148848Y-7425676D01*
X12120276Y-7425676D01*
X12301228Y-7425676D02*
X12282181Y-7416152D01*
X12272657Y-7397105D01*
X12272657Y-7225676D01*
X12453609Y-7416152D02*
X12434562Y-7425676D01*
X12396467Y-7425676D01*
X12377419Y-7416152D01*
X12367895Y-7397105D01*
X12367895Y-7320914D01*
X12377419Y-7301867D01*
X12396467Y-7292343D01*
X12434562Y-7292343D01*
X12453609Y-7301867D01*
X12463133Y-7320914D01*
X12463133Y-7339962D01*
X12367895Y-7359009D01*
X12539324Y-7416152D02*
X12558371Y-7425676D01*
X12596467Y-7425676D01*
X12615514Y-7416152D01*
X12625038Y-7397105D01*
X12625038Y-7387581D01*
X12615514Y-7368533D01*
X12596467Y-7359009D01*
X12567895Y-7359009D01*
X12548848Y-7349486D01*
X12539324Y-7330438D01*
X12539324Y-7320914D01*
X12548848Y-7301867D01*
X12567895Y-7292343D01*
X12596467Y-7292343D01*
X12615514Y-7301867D01*
X12691705Y-7501867D02*
X12701228Y-7492343D01*
X12720276Y-7463771D01*
X12729800Y-7444724D01*
X12739324Y-7416152D01*
X12748848Y-7368533D01*
X12748848Y-7330438D01*
X12739324Y-7282819D01*
X12729800Y-7254248D01*
X12720276Y-7235200D01*
X12701228Y-7206628D01*
X12691705Y-7197105D01*
D10*
X7869800Y-7549200D02*
X7869800Y-7649200D01*
X7819800Y-7599200D02*
X7919800Y-7599200D01*
D11*
X8282181Y-7689676D02*
X8167895Y-7689676D01*
X8225038Y-7689676D02*
X8225038Y-7489676D01*
X8205990Y-7518248D01*
X8186943Y-7537295D01*
X8167895Y-7546819D01*
X8367895Y-7670628D02*
X8377419Y-7680152D01*
X8367895Y-7689676D01*
X8358371Y-7680152D01*
X8367895Y-7670628D01*
X8367895Y-7689676D01*
X8501229Y-7489676D02*
X8520276Y-7489676D01*
X8539324Y-7499200D01*
X8548848Y-7508724D01*
X8558371Y-7527771D01*
X8567895Y-7565867D01*
X8567895Y-7613486D01*
X8558371Y-7651581D01*
X8548848Y-7670628D01*
X8539324Y-7680152D01*
X8520276Y-7689676D01*
X8501229Y-7689676D01*
X8482181Y-7680152D01*
X8472657Y-7670628D01*
X8463133Y-7651581D01*
X8453610Y-7613486D01*
X8453610Y-7565867D01*
X8463133Y-7527771D01*
X8472657Y-7508724D01*
X8482181Y-7499200D01*
X8501229Y-7489676D01*
X8691705Y-7489676D02*
X8710752Y-7489676D01*
X8729800Y-7499200D01*
X8739324Y-7508724D01*
X8748848Y-7527771D01*
X8758371Y-7565867D01*
X8758371Y-7613486D01*
X8748848Y-7651581D01*
X8739324Y-7670628D01*
X8729800Y-7680152D01*
X8710752Y-7689676D01*
X8691705Y-7689676D01*
X8672657Y-7680152D01*
X8663133Y-7670628D01*
X8653610Y-7651581D01*
X8644086Y-7613486D01*
X8644086Y-7565867D01*
X8653610Y-7527771D01*
X8663133Y-7508724D01*
X8672657Y-7499200D01*
X8691705Y-7489676D01*
X8882181Y-7489676D02*
X8901229Y-7489676D01*
X8920276Y-7499200D01*
X8929800Y-7508724D01*
X8939324Y-7527771D01*
X8948848Y-7565867D01*
X8948848Y-7613486D01*
X8939324Y-7651581D01*
X8929800Y-7670628D01*
X8920276Y-7680152D01*
X8901229Y-7689676D01*
X8882181Y-7689676D01*
X8863133Y-7680152D01*
X8853610Y-7670628D01*
X8844086Y-7651581D01*
X8834562Y-7613486D01*
X8834562Y-7565867D01*
X8844086Y-7527771D01*
X8853610Y-7508724D01*
X8863133Y-7499200D01*
X8882181Y-7489676D01*
X9034562Y-7689676D02*
X9034562Y-7556343D01*
X9034562Y-7575390D02*
X9044086Y-7565867D01*
X9063133Y-7556343D01*
X9091705Y-7556343D01*
X9110752Y-7565867D01*
X9120276Y-7584914D01*
X9120276Y-7689676D01*
X9120276Y-7584914D02*
X9129800Y-7565867D01*
X9148848Y-7556343D01*
X9177419Y-7556343D01*
X9196467Y-7565867D01*
X9205990Y-7584914D01*
X9205990Y-7689676D01*
X9301229Y-7689676D02*
X9301229Y-7556343D01*
X9301229Y-7575390D02*
X9310752Y-7565867D01*
X9329800Y-7556343D01*
X9358371Y-7556343D01*
X9377419Y-7565867D01*
X9386943Y-7584914D01*
X9386943Y-7689676D01*
X9386943Y-7584914D02*
X9396467Y-7565867D01*
X9415514Y-7556343D01*
X9444086Y-7556343D01*
X9463133Y-7565867D01*
X9472657Y-7584914D01*
X9472657Y-7689676D01*
X9863133Y-7480152D02*
X9691705Y-7737295D01*
X10120276Y-7489676D02*
X10139324Y-7489676D01*
X10158371Y-7499200D01*
X10167895Y-7508724D01*
X10177419Y-7527771D01*
X10186943Y-7565867D01*
X10186943Y-7613486D01*
X10177419Y-7651581D01*
X10167895Y-7670628D01*
X10158371Y-7680152D01*
X10139324Y-7689676D01*
X10120276Y-7689676D01*
X10101229Y-7680152D01*
X10091705Y-7670628D01*
X10082181Y-7651581D01*
X10072657Y-7613486D01*
X10072657Y-7565867D01*
X10082181Y-7527771D01*
X10091705Y-7508724D01*
X10101229Y-7499200D01*
X10120276Y-7489676D01*
X10272657Y-7670628D02*
X10282181Y-7680152D01*
X10272657Y-7689676D01*
X10263133Y-7680152D01*
X10272657Y-7670628D01*
X10272657Y-7689676D01*
X10405990Y-7489676D02*
X10425038Y-7489676D01*
X10444086Y-7499200D01*
X10453610Y-7508724D01*
X10463133Y-7527771D01*
X10472657Y-7565867D01*
X10472657Y-7613486D01*
X10463133Y-7651581D01*
X10453610Y-7670628D01*
X10444086Y-7680152D01*
X10425038Y-7689676D01*
X10405990Y-7689676D01*
X10386943Y-7680152D01*
X10377419Y-7670628D01*
X10367895Y-7651581D01*
X10358371Y-7613486D01*
X10358371Y-7565867D01*
X10367895Y-7527771D01*
X10377419Y-7508724D01*
X10386943Y-7499200D01*
X10405990Y-7489676D01*
X10539324Y-7489676D02*
X10663133Y-7489676D01*
X10596467Y-7565867D01*
X10625038Y-7565867D01*
X10644086Y-7575390D01*
X10653610Y-7584914D01*
X10663133Y-7603962D01*
X10663133Y-7651581D01*
X10653610Y-7670628D01*
X10644086Y-7680152D01*
X10625038Y-7689676D01*
X10567895Y-7689676D01*
X10548848Y-7680152D01*
X10539324Y-7670628D01*
X10758371Y-7689676D02*
X10796467Y-7689676D01*
X10815514Y-7680152D01*
X10825038Y-7670628D01*
X10844086Y-7642057D01*
X10853610Y-7603962D01*
X10853610Y-7527771D01*
X10844086Y-7508724D01*
X10834562Y-7499200D01*
X10815514Y-7489676D01*
X10777419Y-7489676D01*
X10758371Y-7499200D01*
X10748848Y-7508724D01*
X10739324Y-7527771D01*
X10739324Y-7575390D01*
X10748848Y-7594438D01*
X10758371Y-7603962D01*
X10777419Y-7613486D01*
X10815514Y-7613486D01*
X10834562Y-7603962D01*
X10844086Y-7594438D01*
X10853610Y-7575390D01*
X11025038Y-7556343D02*
X11025038Y-7689676D01*
X10977419Y-7480152D02*
X10929800Y-7623009D01*
X11053610Y-7623009D01*
X11120276Y-7489676D02*
X11120276Y-7527771D01*
X11196467Y-7489676D02*
X11196467Y-7527771D01*
X11491705Y-7765867D02*
X11482181Y-7756343D01*
X11463133Y-7727771D01*
X11453609Y-7708724D01*
X11444086Y-7680152D01*
X11434562Y-7632533D01*
X11434562Y-7594438D01*
X11444086Y-7546819D01*
X11453609Y-7518248D01*
X11463133Y-7499200D01*
X11482181Y-7470628D01*
X11491705Y-7461105D01*
X11548848Y-7489676D02*
X11672657Y-7489676D01*
X11605990Y-7565867D01*
X11634562Y-7565867D01*
X11653609Y-7575390D01*
X11663133Y-7584914D01*
X11672657Y-7603962D01*
X11672657Y-7651581D01*
X11663133Y-7670628D01*
X11653609Y-7680152D01*
X11634562Y-7689676D01*
X11577419Y-7689676D01*
X11558371Y-7680152D01*
X11548848Y-7670628D01*
X11739324Y-7489676D02*
X11863133Y-7489676D01*
X11796467Y-7565867D01*
X11825038Y-7565867D01*
X11844086Y-7575390D01*
X11853609Y-7584914D01*
X11863133Y-7603962D01*
X11863133Y-7651581D01*
X11853609Y-7670628D01*
X11844086Y-7680152D01*
X11825038Y-7689676D01*
X11767895Y-7689676D01*
X11748848Y-7680152D01*
X11739324Y-7670628D01*
X12101228Y-7689676D02*
X12101228Y-7489676D01*
X12186943Y-7689676D02*
X12186943Y-7584914D01*
X12177419Y-7565867D01*
X12158371Y-7556343D01*
X12129800Y-7556343D01*
X12110752Y-7565867D01*
X12101228Y-7575390D01*
X12310752Y-7689676D02*
X12291705Y-7680152D01*
X12282181Y-7670628D01*
X12272657Y-7651581D01*
X12272657Y-7594438D01*
X12282181Y-7575390D01*
X12291705Y-7565867D01*
X12310752Y-7556343D01*
X12339324Y-7556343D01*
X12358371Y-7565867D01*
X12367895Y-7575390D01*
X12377419Y-7594438D01*
X12377419Y-7651581D01*
X12367895Y-7670628D01*
X12358371Y-7680152D01*
X12339324Y-7689676D01*
X12310752Y-7689676D01*
X12491705Y-7689676D02*
X12472657Y-7680152D01*
X12463133Y-7661105D01*
X12463133Y-7489676D01*
X12644086Y-7680152D02*
X12625038Y-7689676D01*
X12586943Y-7689676D01*
X12567895Y-7680152D01*
X12558371Y-7661105D01*
X12558371Y-7584914D01*
X12567895Y-7565867D01*
X12586943Y-7556343D01*
X12625038Y-7556343D01*
X12644086Y-7565867D01*
X12653609Y-7584914D01*
X12653609Y-7603962D01*
X12558371Y-7623009D01*
X12729800Y-7680152D02*
X12748848Y-7689676D01*
X12786943Y-7689676D01*
X12805990Y-7680152D01*
X12815514Y-7661105D01*
X12815514Y-7651581D01*
X12805990Y-7632533D01*
X12786943Y-7623009D01*
X12758371Y-7623009D01*
X12739324Y-7613486D01*
X12729800Y-7594438D01*
X12729800Y-7584914D01*
X12739324Y-7565867D01*
X12758371Y-7556343D01*
X12786943Y-7556343D01*
X12805990Y-7565867D01*
X12882181Y-7765867D02*
X12891705Y-7756343D01*
X12910752Y-7727771D01*
X12920276Y-7708724D01*
X12929800Y-7680152D01*
X12939324Y-7632533D01*
X12939324Y-7594438D01*
X12929800Y-7546819D01*
X12920276Y-7518248D01*
X12910752Y-7499200D01*
X12891705Y-7470628D01*
X12882181Y-7461105D01*
M02*
