%TF.GenerationSoftware,KiCad,Pcbnew,7.0.8*%
%TF.CreationDate,2023-11-28T16:15:57+00:00*%
%TF.ProjectId,MHI-AC-CTRL,4d48492d-4143-42d4-9354-524c2e6b6963,v2.3*%
%TF.SameCoordinates,Original*%
%TF.FileFunction,Copper,L1,Top*%
%TF.FilePolarity,Positive*%
%FSLAX46Y46*%
G04 Gerber Fmt 4.6, Leading zero omitted, Abs format (unit mm)*
G04 Created by KiCad (PCBNEW 7.0.8) date 2023-11-28 16:15:57*
%MOMM*%
%LPD*%
G01*
G04 APERTURE LIST*
G04 Aperture macros list*
%AMRoundRect*
0 Rectangle with rounded corners*
0 $1 Rounding radius*
0 $2 $3 $4 $5 $6 $7 $8 $9 X,Y pos of 4 corners*
0 Add a 4 corners polygon primitive as box body*
4,1,4,$2,$3,$4,$5,$6,$7,$8,$9,$2,$3,0*
0 Add four circle primitives for the rounded corners*
1,1,$1+$1,$2,$3*
1,1,$1+$1,$4,$5*
1,1,$1+$1,$6,$7*
1,1,$1+$1,$8,$9*
0 Add four rect primitives between the rounded corners*
20,1,$1+$1,$2,$3,$4,$5,0*
20,1,$1+$1,$4,$5,$6,$7,0*
20,1,$1+$1,$6,$7,$8,$9,0*
20,1,$1+$1,$8,$9,$2,$3,0*%
G04 Aperture macros list end*
%TA.AperFunction,ComponentPad*%
%ADD10R,2.500000X1.500000*%
%TD*%
%TA.AperFunction,ComponentPad*%
%ADD11O,2.500000X1.500000*%
%TD*%
%TA.AperFunction,ComponentPad*%
%ADD12R,1.700000X1.700000*%
%TD*%
%TA.AperFunction,ComponentPad*%
%ADD13O,1.700000X1.700000*%
%TD*%
%TA.AperFunction,ComponentPad*%
%ADD14C,1.700000*%
%TD*%
%TA.AperFunction,ComponentPad*%
%ADD15RoundRect,0.250000X0.725000X-0.600000X0.725000X0.600000X-0.725000X0.600000X-0.725000X-0.600000X0*%
%TD*%
%TA.AperFunction,ComponentPad*%
%ADD16O,1.950000X1.700000*%
%TD*%
%TA.AperFunction,ComponentPad*%
%ADD17R,2.000000X2.000000*%
%TD*%
%TA.AperFunction,ComponentPad*%
%ADD18O,1.600000X2.000000*%
%TD*%
%TA.AperFunction,ComponentPad*%
%ADD19C,1.600000*%
%TD*%
%TA.AperFunction,ComponentPad*%
%ADD20O,1.600000X1.600000*%
%TD*%
%TA.AperFunction,ComponentPad*%
%ADD21O,2.000000X2.000000*%
%TD*%
%TA.AperFunction,ComponentPad*%
%ADD22C,1.800000*%
%TD*%
%TA.AperFunction,ComponentPad*%
%ADD23R,1.800000X1.700000*%
%TD*%
%TA.AperFunction,Conductor*%
%ADD24C,0.500000*%
%TD*%
%TA.AperFunction,Conductor*%
%ADD25C,0.250000*%
%TD*%
G04 APERTURE END LIST*
D10*
%TO.P,U1,1,Vin*%
%TO.N,+12V*%
X99669600Y-55270400D03*
D11*
%TO.P,U1,2,GND*%
%TO.N,GND*%
X99669600Y-52730400D03*
%TO.P,U1,3,Vout*%
%TO.N,+5V*%
X99669600Y-50190400D03*
%TD*%
D12*
%TO.P,U3,1,A1*%
%TO.N,MOSI_5V*%
X104140000Y-46990000D03*
D13*
%TO.P,U3,2,A2*%
%TO.N,MISO_5V*%
X106680000Y-46990000D03*
%TO.P,U3,3,VCCA*%
%TO.N,+5V*%
X109220000Y-46990000D03*
%TO.P,U3,4,GNDA*%
%TO.N,GND*%
X111760000Y-46990000D03*
%TO.P,U3,5,A3*%
%TO.N,CLK_5V*%
X114300000Y-46990000D03*
%TO.P,U3,6,A4*%
%TO.N,unconnected-(U3-A4-Pad6)*%
X116840000Y-46990000D03*
D14*
%TO.P,U3,7,B1*%
%TO.N,MOSI_3V3*%
X104140000Y-57150000D03*
D13*
%TO.P,U3,8,B2*%
%TO.N,MISO_3V3*%
X106680000Y-57150000D03*
%TO.P,U3,9,VCCB*%
%TO.N,+3V3*%
X109220000Y-57150000D03*
%TO.P,U3,10,GNDB*%
%TO.N,GND*%
X111760000Y-57150000D03*
%TO.P,U3,11,B3*%
%TO.N,CLK_3V3*%
X114300000Y-57150000D03*
%TO.P,U3,12,B4*%
%TO.N,unconnected-(U3-B4-Pad12)*%
X116840000Y-57150000D03*
%TD*%
D15*
%TO.P,J3,1,Pin_1*%
%TO.N,+3V3*%
X84323600Y-44450000D03*
D16*
%TO.P,J3,2,Pin_2*%
%TO.N,DS18x20*%
X84323600Y-41950000D03*
%TO.P,J3,3,Pin_3*%
%TO.N,GND*%
X84323600Y-39450000D03*
%TD*%
D17*
%TO.P,U2,1,~{RST}*%
%TO.N,unconnected-(U2-~{RST}-Pad1)*%
X93980000Y-62230000D03*
D18*
%TO.P,U2,2,A0*%
%TO.N,unconnected-(U2-A0-Pad2)*%
X96520000Y-62230000D03*
%TO.P,U2,3,D0*%
%TO.N,unconnected-(U2-D0-Pad3)*%
X99060000Y-62230000D03*
%TO.P,U2,4,SCK/D5*%
%TO.N,CLK_3V3*%
X101600000Y-62230000D03*
%TO.P,U2,5,MISO/D6*%
%TO.N,MISO_3V3*%
X104140000Y-62230000D03*
%TO.P,U2,6,MOSI/D7*%
%TO.N,MOSI_3V3*%
X106680000Y-62230000D03*
%TO.P,U2,7,CS/D8*%
%TO.N,unconnected-(U2-CS{slash}D8-Pad7)*%
X109220000Y-62230000D03*
%TO.P,U2,8,3V3*%
%TO.N,+3V3*%
X111760000Y-62230000D03*
%TO.P,U2,9,5V*%
%TO.N,+5V*%
X111760000Y-39370000D03*
%TO.P,U2,10,GND*%
%TO.N,GND*%
X109220000Y-39370000D03*
%TO.P,U2,11,D4*%
%TO.N,unconnected-(U2-D4-Pad11)*%
X106680000Y-39370000D03*
%TO.P,U2,12,D3*%
%TO.N,unconnected-(U2-D3-Pad12)*%
X104140000Y-39370000D03*
%TO.P,U2,13,SDA/D2*%
%TO.N,DS18x20*%
X101600000Y-39370000D03*
%TO.P,U2,14,SCL/D1*%
%TO.N,unconnected-(U2-SCL{slash}D1-Pad14)*%
X99060000Y-39370000D03*
%TO.P,U2,15,RX*%
%TO.N,unconnected-(U2-RX-Pad15)*%
X96520000Y-39370000D03*
%TO.P,U2,16,TX*%
%TO.N,unconnected-(U2-TX-Pad16)*%
X93980000Y-39370000D03*
%TD*%
D19*
%TO.P,C3,1*%
%TO.N,+5V*%
X111760000Y-43180000D03*
%TO.P,C3,2*%
%TO.N,GND*%
X109260000Y-43180000D03*
%TD*%
%TO.P,R1,1*%
%TO.N,+3V3*%
X93980000Y-43815000D03*
D20*
%TO.P,R1,2*%
%TO.N,DS18x20*%
X104140000Y-43815000D03*
%TD*%
D17*
%TO.P,C1,1*%
%TO.N,+12V*%
X90119200Y-41979200D03*
D21*
%TO.P,C1,2*%
%TO.N,GND*%
X90119200Y-56979200D03*
%TD*%
D19*
%TO.P,C2,1*%
%TO.N,+12V*%
X87630000Y-60401200D03*
%TO.P,C2,2*%
%TO.N,GND*%
X90130000Y-60401200D03*
%TD*%
D22*
%TO.P,J1,5,Pin_5*%
%TO.N,GND*%
X83786200Y-50452000D03*
%TO.P,J1,4,Pin_4*%
%TO.N,MISO_5V*%
X83786200Y-52952000D03*
%TO.P,J1,3,Pin_3*%
%TO.N,MOSI_5V*%
X83786200Y-55452000D03*
%TO.P,J1,2,Pin_2*%
%TO.N,CLK_5V*%
X83786200Y-57952000D03*
D23*
%TO.P,J1,1,Pin_1*%
%TO.N,+12V*%
X83786200Y-60452000D03*
%TD*%
D24*
%TO.N,GND*%
X109220000Y-39370000D02*
X109220000Y-43140000D01*
X90119200Y-56979200D02*
X92880800Y-56979200D01*
X92880800Y-56979200D02*
X97129600Y-52730400D01*
X109220000Y-43140000D02*
X109260000Y-43180000D01*
X97129600Y-52730400D02*
X99669600Y-52730400D01*
%TO.N,+5V*%
X109220000Y-46482000D02*
X109220000Y-46990000D01*
X111760000Y-43942000D02*
X109220000Y-46482000D01*
X111760000Y-43180000D02*
X111760000Y-43942000D01*
X111760000Y-39370000D02*
X111760000Y-43180000D01*
D25*
%TO.N,MISO_5V*%
X93853000Y-45212000D02*
X106172000Y-45212000D01*
X106172000Y-45212000D02*
X106680000Y-45720000D01*
X86294600Y-52770400D02*
X93853000Y-45212000D01*
X106680000Y-45720000D02*
X106680000Y-46990000D01*
X83786200Y-52770400D02*
X86294600Y-52770400D01*
%TO.N,MOSI_5V*%
X83786200Y-55270400D02*
X86207600Y-55270400D01*
X94488000Y-46990000D02*
X104140000Y-46990000D01*
X86207600Y-55270400D02*
X94488000Y-46990000D01*
%TO.N,CLK_5V*%
X86501600Y-57770400D02*
X96012000Y-48260000D01*
X102362000Y-49022000D02*
X113792000Y-49022000D01*
X101600000Y-48260000D02*
X102362000Y-49022000D01*
X113792000Y-49022000D02*
X114300000Y-48514000D01*
X114300000Y-48514000D02*
X114300000Y-46990000D01*
X83786200Y-57770400D02*
X86501600Y-57770400D01*
X96012000Y-48260000D02*
X101600000Y-48260000D01*
D24*
%TO.N,+3V3*%
X109220000Y-58420000D02*
X111760000Y-60960000D01*
X92583000Y-43815000D02*
X93980000Y-43815000D01*
X109220000Y-57150000D02*
X109220000Y-58420000D01*
X84323600Y-44450000D02*
X91948000Y-44450000D01*
X91948000Y-44450000D02*
X92583000Y-43815000D01*
X111760000Y-60960000D02*
X111760000Y-62230000D01*
D25*
%TO.N,DS18x20*%
X101600000Y-41910000D02*
X101600000Y-39370000D01*
X91440000Y-40005000D02*
X93345000Y-41910000D01*
X84323600Y-41950000D02*
X86320000Y-41950000D01*
X93345000Y-41910000D02*
X101600000Y-41910000D01*
X104140000Y-42545000D02*
X103505000Y-41910000D01*
X88265000Y-40005000D02*
X91440000Y-40005000D01*
X86320000Y-41950000D02*
X88265000Y-40005000D01*
X103505000Y-41910000D02*
X101600000Y-41910000D01*
X104140000Y-43815000D02*
X104140000Y-42545000D01*
%TO.N,MISO_3V3*%
X104140000Y-61214000D02*
X106680000Y-58674000D01*
X104140000Y-62230000D02*
X104140000Y-61214000D01*
X106680000Y-58674000D02*
X106680000Y-57150000D01*
%TO.N,CLK_3V3*%
X114300000Y-55880000D02*
X114300000Y-57150000D01*
X102870000Y-55372000D02*
X113792000Y-55372000D01*
X113792000Y-55372000D02*
X114300000Y-55880000D01*
X101600000Y-56642000D02*
X102870000Y-55372000D01*
X101600000Y-62230000D02*
X101600000Y-56642000D01*
%TD*%
M02*
