M48
; DRILL file {KiCad 7.0.8} date Tue Nov 28 16:18:01 2023
; FORMAT={-:-/ absolute / metric / decimal}
; #@! TF.CreationDate,2023-11-28T16:18:01+00:00
; #@! TF.GenerationSoftware,Kicad,Pcbnew,7.0.8
; #@! TF.FileFunction,Plated,1,2,PTH
FMAT,2
METRIC
; #@! TA.AperFunction,Plated,PTH,ComponentDrill
T1C0.800
; #@! TA.AperFunction,Plated,PTH,ComponentDrill
T2C0.950
; #@! TA.AperFunction,Plated,PTH,ComponentDrill
T3C1.000
; #@! TA.AperFunction,Plated,PTH,ComponentDrill
T4C1.100
%
G90
G05
T1
X87.63Y-60.401
X90.13Y-60.401
X93.98Y-43.815
X104.14Y-43.815
X109.26Y-43.18
X111.76Y-43.18
T2
X84.324Y-39.45
X84.324Y-41.95
X84.324Y-44.45
T3
X90.119Y-41.979
X90.119Y-56.979
X93.98Y-39.37
X93.98Y-62.23
X96.52Y-39.37
X96.52Y-62.23
X99.06Y-39.37
X99.06Y-62.23
X99.67Y-50.19
X99.67Y-52.73
X99.67Y-55.27
X101.6Y-39.37
X101.6Y-62.23
X104.14Y-39.37
X104.14Y-46.99
X104.14Y-57.15
X104.14Y-62.23
X106.68Y-39.37
X106.68Y-46.99
X106.68Y-57.15
X106.68Y-62.23
X109.22Y-39.37
X109.22Y-46.99
X109.22Y-57.15
X109.22Y-62.23
X111.76Y-39.37
X111.76Y-46.99
X111.76Y-57.15
X111.76Y-62.23
X114.3Y-46.99
X114.3Y-57.15
X116.84Y-46.99
X116.84Y-57.15
T4
X83.786Y-50.452
X83.786Y-52.952
X83.786Y-55.452
X83.786Y-57.952
X83.786Y-60.452
T0
M30
