%TF.GenerationSoftware,KiCad,Pcbnew,7.0.8*%
%TF.CreationDate,2023-11-28T16:15:57+00:00*%
%TF.ProjectId,MHI-AC-CTRL,4d48492d-4143-42d4-9354-524c2e6b6963,v2.3*%
%TF.SameCoordinates,Original*%
%TF.FileFunction,Legend,Bot*%
%TF.FilePolarity,Positive*%
%FSLAX46Y46*%
G04 Gerber Fmt 4.6, Leading zero omitted, Abs format (unit mm)*
G04 Created by KiCad (PCBNEW 7.0.8) date 2023-11-28 16:15:57*
%MOMM*%
%LPD*%
G01*
G04 APERTURE LIST*
G04 Aperture macros list*
%AMRoundRect*
0 Rectangle with rounded corners*
0 $1 Rounding radius*
0 $2 $3 $4 $5 $6 $7 $8 $9 X,Y pos of 4 corners*
0 Add a 4 corners polygon primitive as box body*
4,1,4,$2,$3,$4,$5,$6,$7,$8,$9,$2,$3,0*
0 Add four circle primitives for the rounded corners*
1,1,$1+$1,$2,$3*
1,1,$1+$1,$4,$5*
1,1,$1+$1,$6,$7*
1,1,$1+$1,$8,$9*
0 Add four rect primitives between the rounded corners*
20,1,$1+$1,$2,$3,$4,$5,0*
20,1,$1+$1,$4,$5,$6,$7,0*
20,1,$1+$1,$6,$7,$8,$9,0*
20,1,$1+$1,$8,$9,$2,$3,0*%
G04 Aperture macros list end*
%ADD10C,0.150000*%
%ADD11C,0.250000*%
%ADD12R,2.500000X1.500000*%
%ADD13O,2.500000X1.500000*%
%ADD14R,1.700000X1.700000*%
%ADD15O,1.700000X1.700000*%
%ADD16C,1.700000*%
%ADD17RoundRect,0.250000X0.725000X-0.600000X0.725000X0.600000X-0.725000X0.600000X-0.725000X-0.600000X0*%
%ADD18O,1.950000X1.700000*%
%ADD19R,2.000000X2.000000*%
%ADD20O,1.600000X2.000000*%
%ADD21C,1.600000*%
%ADD22O,1.600000X1.600000*%
%ADD23O,2.000000X2.000000*%
%ADD24C,1.800000*%
%ADD25R,1.800000X1.700000*%
G04 APERTURE END LIST*
D10*
X118331428Y-51254819D02*
X118331428Y-50254819D01*
X118331428Y-50254819D02*
X117998095Y-50969104D01*
X117998095Y-50969104D02*
X117664762Y-50254819D01*
X117664762Y-50254819D02*
X117664762Y-51254819D01*
X117188571Y-51254819D02*
X117188571Y-50254819D01*
X117188571Y-50731009D02*
X116617143Y-50731009D01*
X116617143Y-51254819D02*
X116617143Y-50254819D01*
X116140952Y-51254819D02*
X116140952Y-50254819D01*
X115664762Y-50873866D02*
X114902858Y-50873866D01*
X114474286Y-50969104D02*
X113998096Y-50969104D01*
X114569524Y-51254819D02*
X114236191Y-50254819D01*
X114236191Y-50254819D02*
X113902858Y-51254819D01*
X112998096Y-51159580D02*
X113045715Y-51207200D01*
X113045715Y-51207200D02*
X113188572Y-51254819D01*
X113188572Y-51254819D02*
X113283810Y-51254819D01*
X113283810Y-51254819D02*
X113426667Y-51207200D01*
X113426667Y-51207200D02*
X113521905Y-51111961D01*
X113521905Y-51111961D02*
X113569524Y-51016723D01*
X113569524Y-51016723D02*
X113617143Y-50826247D01*
X113617143Y-50826247D02*
X113617143Y-50683390D01*
X113617143Y-50683390D02*
X113569524Y-50492914D01*
X113569524Y-50492914D02*
X113521905Y-50397676D01*
X113521905Y-50397676D02*
X113426667Y-50302438D01*
X113426667Y-50302438D02*
X113283810Y-50254819D01*
X113283810Y-50254819D02*
X113188572Y-50254819D01*
X113188572Y-50254819D02*
X113045715Y-50302438D01*
X113045715Y-50302438D02*
X112998096Y-50350057D01*
X112569524Y-50873866D02*
X111807620Y-50873866D01*
X110760001Y-51159580D02*
X110807620Y-51207200D01*
X110807620Y-51207200D02*
X110950477Y-51254819D01*
X110950477Y-51254819D02*
X111045715Y-51254819D01*
X111045715Y-51254819D02*
X111188572Y-51207200D01*
X111188572Y-51207200D02*
X111283810Y-51111961D01*
X111283810Y-51111961D02*
X111331429Y-51016723D01*
X111331429Y-51016723D02*
X111379048Y-50826247D01*
X111379048Y-50826247D02*
X111379048Y-50683390D01*
X111379048Y-50683390D02*
X111331429Y-50492914D01*
X111331429Y-50492914D02*
X111283810Y-50397676D01*
X111283810Y-50397676D02*
X111188572Y-50302438D01*
X111188572Y-50302438D02*
X111045715Y-50254819D01*
X111045715Y-50254819D02*
X110950477Y-50254819D01*
X110950477Y-50254819D02*
X110807620Y-50302438D01*
X110807620Y-50302438D02*
X110760001Y-50350057D01*
X110474286Y-50588152D02*
X110093334Y-50588152D01*
X110331429Y-50254819D02*
X110331429Y-51111961D01*
X110331429Y-51111961D02*
X110283810Y-51207200D01*
X110283810Y-51207200D02*
X110188572Y-51254819D01*
X110188572Y-51254819D02*
X110093334Y-51254819D01*
X109760000Y-51254819D02*
X109760000Y-50588152D01*
X109760000Y-50778628D02*
X109712381Y-50683390D01*
X109712381Y-50683390D02*
X109664762Y-50635771D01*
X109664762Y-50635771D02*
X109569524Y-50588152D01*
X109569524Y-50588152D02*
X109474286Y-50588152D01*
X108998095Y-51254819D02*
X109093333Y-51207200D01*
X109093333Y-51207200D02*
X109140952Y-51111961D01*
X109140952Y-51111961D02*
X109140952Y-50254819D01*
X107950475Y-50588152D02*
X107712380Y-51254819D01*
X107712380Y-51254819D02*
X107474285Y-50588152D01*
X107140951Y-50350057D02*
X107093332Y-50302438D01*
X107093332Y-50302438D02*
X106998094Y-50254819D01*
X106998094Y-50254819D02*
X106759999Y-50254819D01*
X106759999Y-50254819D02*
X106664761Y-50302438D01*
X106664761Y-50302438D02*
X106617142Y-50350057D01*
X106617142Y-50350057D02*
X106569523Y-50445295D01*
X106569523Y-50445295D02*
X106569523Y-50540533D01*
X106569523Y-50540533D02*
X106617142Y-50683390D01*
X106617142Y-50683390D02*
X107188570Y-51254819D01*
X107188570Y-51254819D02*
X106569523Y-51254819D01*
X106140951Y-51159580D02*
X106093332Y-51207200D01*
X106093332Y-51207200D02*
X106140951Y-51254819D01*
X106140951Y-51254819D02*
X106188570Y-51207200D01*
X106188570Y-51207200D02*
X106140951Y-51159580D01*
X106140951Y-51159580D02*
X106140951Y-51254819D01*
X105759999Y-50254819D02*
X105140952Y-50254819D01*
X105140952Y-50254819D02*
X105474285Y-50635771D01*
X105474285Y-50635771D02*
X105331428Y-50635771D01*
X105331428Y-50635771D02*
X105236190Y-50683390D01*
X105236190Y-50683390D02*
X105188571Y-50731009D01*
X105188571Y-50731009D02*
X105140952Y-50826247D01*
X105140952Y-50826247D02*
X105140952Y-51064342D01*
X105140952Y-51064342D02*
X105188571Y-51159580D01*
X105188571Y-51159580D02*
X105236190Y-51207200D01*
X105236190Y-51207200D02*
X105331428Y-51254819D01*
X105331428Y-51254819D02*
X105617142Y-51254819D01*
X105617142Y-51254819D02*
X105712380Y-51207200D01*
X105712380Y-51207200D02*
X105759999Y-51159580D01*
X115204286Y-52794819D02*
X115013810Y-52794819D01*
X115013810Y-52794819D02*
X114918572Y-52842438D01*
X114918572Y-52842438D02*
X114823334Y-52937676D01*
X114823334Y-52937676D02*
X114775715Y-53128152D01*
X114775715Y-53128152D02*
X114775715Y-53461485D01*
X114775715Y-53461485D02*
X114823334Y-53651961D01*
X114823334Y-53651961D02*
X114918572Y-53747200D01*
X114918572Y-53747200D02*
X115013810Y-53794819D01*
X115013810Y-53794819D02*
X115204286Y-53794819D01*
X115204286Y-53794819D02*
X115299524Y-53747200D01*
X115299524Y-53747200D02*
X115394762Y-53651961D01*
X115394762Y-53651961D02*
X115442381Y-53461485D01*
X115442381Y-53461485D02*
X115442381Y-53128152D01*
X115442381Y-53128152D02*
X115394762Y-52937676D01*
X115394762Y-52937676D02*
X115299524Y-52842438D01*
X115299524Y-52842438D02*
X115204286Y-52794819D01*
X114347143Y-53794819D02*
X114347143Y-52794819D01*
X114251905Y-53413866D02*
X113966191Y-53794819D01*
X113966191Y-53128152D02*
X114347143Y-53509104D01*
X113680476Y-53128152D02*
X113299524Y-53128152D01*
X113537619Y-52794819D02*
X113537619Y-53651961D01*
X113537619Y-53651961D02*
X113490000Y-53747200D01*
X113490000Y-53747200D02*
X113394762Y-53794819D01*
X113394762Y-53794819D02*
X113299524Y-53794819D01*
X112823333Y-53794819D02*
X112918571Y-53747200D01*
X112918571Y-53747200D02*
X112966190Y-53699580D01*
X112966190Y-53699580D02*
X113013809Y-53604342D01*
X113013809Y-53604342D02*
X113013809Y-53318628D01*
X113013809Y-53318628D02*
X112966190Y-53223390D01*
X112966190Y-53223390D02*
X112918571Y-53175771D01*
X112918571Y-53175771D02*
X112823333Y-53128152D01*
X112823333Y-53128152D02*
X112680476Y-53128152D01*
X112680476Y-53128152D02*
X112585238Y-53175771D01*
X112585238Y-53175771D02*
X112537619Y-53223390D01*
X112537619Y-53223390D02*
X112490000Y-53318628D01*
X112490000Y-53318628D02*
X112490000Y-53604342D01*
X112490000Y-53604342D02*
X112537619Y-53699580D01*
X112537619Y-53699580D02*
X112585238Y-53747200D01*
X112585238Y-53747200D02*
X112680476Y-53794819D01*
X112680476Y-53794819D02*
X112823333Y-53794819D01*
X112061428Y-53794819D02*
X112061428Y-52794819D01*
X112061428Y-53175771D02*
X111966190Y-53128152D01*
X111966190Y-53128152D02*
X111775714Y-53128152D01*
X111775714Y-53128152D02*
X111680476Y-53175771D01*
X111680476Y-53175771D02*
X111632857Y-53223390D01*
X111632857Y-53223390D02*
X111585238Y-53318628D01*
X111585238Y-53318628D02*
X111585238Y-53604342D01*
X111585238Y-53604342D02*
X111632857Y-53699580D01*
X111632857Y-53699580D02*
X111680476Y-53747200D01*
X111680476Y-53747200D02*
X111775714Y-53794819D01*
X111775714Y-53794819D02*
X111966190Y-53794819D01*
X111966190Y-53794819D02*
X112061428Y-53747200D01*
X110775714Y-53747200D02*
X110870952Y-53794819D01*
X110870952Y-53794819D02*
X111061428Y-53794819D01*
X111061428Y-53794819D02*
X111156666Y-53747200D01*
X111156666Y-53747200D02*
X111204285Y-53651961D01*
X111204285Y-53651961D02*
X111204285Y-53271009D01*
X111204285Y-53271009D02*
X111156666Y-53175771D01*
X111156666Y-53175771D02*
X111061428Y-53128152D01*
X111061428Y-53128152D02*
X110870952Y-53128152D01*
X110870952Y-53128152D02*
X110775714Y-53175771D01*
X110775714Y-53175771D02*
X110728095Y-53271009D01*
X110728095Y-53271009D02*
X110728095Y-53366247D01*
X110728095Y-53366247D02*
X111204285Y-53461485D01*
X110299523Y-53794819D02*
X110299523Y-53128152D01*
X110299523Y-53318628D02*
X110251904Y-53223390D01*
X110251904Y-53223390D02*
X110204285Y-53175771D01*
X110204285Y-53175771D02*
X110109047Y-53128152D01*
X110109047Y-53128152D02*
X110013809Y-53128152D01*
X108966189Y-52890057D02*
X108918570Y-52842438D01*
X108918570Y-52842438D02*
X108823332Y-52794819D01*
X108823332Y-52794819D02*
X108585237Y-52794819D01*
X108585237Y-52794819D02*
X108489999Y-52842438D01*
X108489999Y-52842438D02*
X108442380Y-52890057D01*
X108442380Y-52890057D02*
X108394761Y-52985295D01*
X108394761Y-52985295D02*
X108394761Y-53080533D01*
X108394761Y-53080533D02*
X108442380Y-53223390D01*
X108442380Y-53223390D02*
X109013808Y-53794819D01*
X109013808Y-53794819D02*
X108394761Y-53794819D01*
X107775713Y-52794819D02*
X107680475Y-52794819D01*
X107680475Y-52794819D02*
X107585237Y-52842438D01*
X107585237Y-52842438D02*
X107537618Y-52890057D01*
X107537618Y-52890057D02*
X107489999Y-52985295D01*
X107489999Y-52985295D02*
X107442380Y-53175771D01*
X107442380Y-53175771D02*
X107442380Y-53413866D01*
X107442380Y-53413866D02*
X107489999Y-53604342D01*
X107489999Y-53604342D02*
X107537618Y-53699580D01*
X107537618Y-53699580D02*
X107585237Y-53747200D01*
X107585237Y-53747200D02*
X107680475Y-53794819D01*
X107680475Y-53794819D02*
X107775713Y-53794819D01*
X107775713Y-53794819D02*
X107870951Y-53747200D01*
X107870951Y-53747200D02*
X107918570Y-53699580D01*
X107918570Y-53699580D02*
X107966189Y-53604342D01*
X107966189Y-53604342D02*
X108013808Y-53413866D01*
X108013808Y-53413866D02*
X108013808Y-53175771D01*
X108013808Y-53175771D02*
X107966189Y-52985295D01*
X107966189Y-52985295D02*
X107918570Y-52890057D01*
X107918570Y-52890057D02*
X107870951Y-52842438D01*
X107870951Y-52842438D02*
X107775713Y-52794819D01*
X107061427Y-52890057D02*
X107013808Y-52842438D01*
X107013808Y-52842438D02*
X106918570Y-52794819D01*
X106918570Y-52794819D02*
X106680475Y-52794819D01*
X106680475Y-52794819D02*
X106585237Y-52842438D01*
X106585237Y-52842438D02*
X106537618Y-52890057D01*
X106537618Y-52890057D02*
X106489999Y-52985295D01*
X106489999Y-52985295D02*
X106489999Y-53080533D01*
X106489999Y-53080533D02*
X106537618Y-53223390D01*
X106537618Y-53223390D02*
X107109046Y-53794819D01*
X107109046Y-53794819D02*
X106489999Y-53794819D01*
X106109046Y-52890057D02*
X106061427Y-52842438D01*
X106061427Y-52842438D02*
X105966189Y-52794819D01*
X105966189Y-52794819D02*
X105728094Y-52794819D01*
X105728094Y-52794819D02*
X105632856Y-52842438D01*
X105632856Y-52842438D02*
X105585237Y-52890057D01*
X105585237Y-52890057D02*
X105537618Y-52985295D01*
X105537618Y-52985295D02*
X105537618Y-53080533D01*
X105537618Y-53080533D02*
X105585237Y-53223390D01*
X105585237Y-53223390D02*
X106156665Y-53794819D01*
X106156665Y-53794819D02*
X105537618Y-53794819D01*
X80353819Y-55038666D02*
X81068104Y-55038666D01*
X81068104Y-55038666D02*
X81210961Y-54991047D01*
X81210961Y-54991047D02*
X81306200Y-54895809D01*
X81306200Y-54895809D02*
X81353819Y-54752952D01*
X81353819Y-54752952D02*
X81353819Y-54657714D01*
X81353819Y-56038666D02*
X81353819Y-55467238D01*
X81353819Y-55752952D02*
X80353819Y-55752952D01*
X80353819Y-55752952D02*
X80496676Y-55657714D01*
X80496676Y-55657714D02*
X80591914Y-55562476D01*
X80591914Y-55562476D02*
X80639533Y-55467238D01*
D11*
%TO.C,J1*%
X81086200Y-62952000D02*
X87086200Y-62952000D01*
X81086200Y-62952000D02*
X81086200Y-61952000D01*
X87086200Y-62952000D02*
X87086200Y-61952000D01*
X82036200Y-62052000D02*
X82036200Y-48852000D01*
X86136200Y-62052000D02*
X82036200Y-62052000D01*
X86136200Y-62052000D02*
X86136200Y-48852000D01*
X81086200Y-61952000D02*
X82036200Y-61952000D01*
X86136200Y-61952000D02*
X87086200Y-61952000D01*
X86136200Y-60952000D02*
X87086200Y-60952000D01*
X86136200Y-59952000D02*
X87086200Y-59952000D01*
X86936200Y-59952000D02*
X86936200Y-50952000D01*
X87086200Y-59952000D02*
X87086200Y-60952000D01*
X86136200Y-50952000D02*
X87086200Y-50952000D01*
X87086200Y-50952000D02*
X87086200Y-49952000D01*
X86136200Y-49952000D02*
X87086200Y-49952000D01*
X81086200Y-48952000D02*
X82036200Y-48952000D01*
X86136200Y-48952000D02*
X87086200Y-48952000D01*
X86136200Y-48852000D02*
X82036200Y-48852000D01*
X81086200Y-47952000D02*
X81086200Y-48952000D01*
X81086200Y-47952000D02*
X87086200Y-47952000D01*
X87086200Y-47952000D02*
X87086200Y-48952000D01*
%TD*%
%LPC*%
D12*
%TO.C,U1*%
X99669600Y-55270400D03*
D13*
X99669600Y-52730400D03*
X99669600Y-50190400D03*
%TD*%
D14*
%TO.C,U3*%
X104140000Y-46990000D03*
D15*
X106680000Y-46990000D03*
X109220000Y-46990000D03*
X111760000Y-46990000D03*
X114300000Y-46990000D03*
X116840000Y-46990000D03*
D16*
X104140000Y-57150000D03*
D15*
X106680000Y-57150000D03*
X109220000Y-57150000D03*
X111760000Y-57150000D03*
X114300000Y-57150000D03*
X116840000Y-57150000D03*
%TD*%
D17*
%TO.C,J3*%
X84323600Y-44450000D03*
D18*
X84323600Y-41950000D03*
X84323600Y-39450000D03*
%TD*%
D19*
%TO.C,U2*%
X93980000Y-62230000D03*
D20*
X96520000Y-62230000D03*
X99060000Y-62230000D03*
X101600000Y-62230000D03*
X104140000Y-62230000D03*
X106680000Y-62230000D03*
X109220000Y-62230000D03*
X111760000Y-62230000D03*
X111760000Y-39370000D03*
X109220000Y-39370000D03*
X106680000Y-39370000D03*
X104140000Y-39370000D03*
X101600000Y-39370000D03*
X99060000Y-39370000D03*
X96520000Y-39370000D03*
X93980000Y-39370000D03*
%TD*%
D21*
%TO.C,C3*%
X111760000Y-43180000D03*
X109260000Y-43180000D03*
%TD*%
%TO.C,R1*%
X93980000Y-43815000D03*
D22*
X104140000Y-43815000D03*
%TD*%
D19*
%TO.C,C1*%
X90119200Y-41979200D03*
D23*
X90119200Y-56979200D03*
%TD*%
D21*
%TO.C,C2*%
X87630000Y-60401200D03*
X90130000Y-60401200D03*
%TD*%
D24*
%TO.C,J1*%
X83786200Y-50452000D03*
X83786200Y-52952000D03*
X83786200Y-55452000D03*
X83786200Y-57952000D03*
D25*
X83786200Y-60452000D03*
%TD*%
%LPD*%
M02*
