%TF.GenerationSoftware,KiCad,Pcbnew,(6.0.8)*%
%TF.CreationDate,2022-10-25T11:26:18+02:00*%
%TF.ProjectId,MHI-AC-CTRL,4d48492d-4143-42d4-9354-524c2e6b6963,v2.3*%
%TF.SameCoordinates,Original*%
%TF.FileFunction,Drillmap*%
%TF.FilePolarity,Positive*%
%FSLAX45Y45*%
G04 Gerber Fmt 4.5, Leading zero omitted, Abs format (unit mm)*
G04 Created by KiCad (PCBNEW (6.0.8)) date 2022-10-25 11:26:18*
%MOMM*%
%LPD*%
G01*
G04 APERTURE LIST*
%ADD10C,0.100000*%
%ADD11C,0.200000*%
G04 APERTURE END LIST*
D10*
X12115800Y-6426200D02*
X7924800Y-6426200D01*
X7924800Y-3708400D02*
X12115800Y-3708400D01*
X7924800Y-6426200D02*
X7924800Y-3708400D01*
X12115800Y-3708400D02*
X12115800Y-6426200D01*
D11*
X8177419Y-6741676D02*
X8177419Y-6541676D01*
X8225038Y-6541676D01*
X8253609Y-6551200D01*
X8272657Y-6570248D01*
X8282181Y-6589295D01*
X8291705Y-6627390D01*
X8291705Y-6655962D01*
X8282181Y-6694057D01*
X8272657Y-6713105D01*
X8253609Y-6732152D01*
X8225038Y-6741676D01*
X8177419Y-6741676D01*
X8377419Y-6741676D02*
X8377419Y-6608343D01*
X8377419Y-6646438D02*
X8386943Y-6627390D01*
X8396467Y-6617867D01*
X8415514Y-6608343D01*
X8434562Y-6608343D01*
X8501229Y-6741676D02*
X8501229Y-6608343D01*
X8501229Y-6541676D02*
X8491705Y-6551200D01*
X8501229Y-6560724D01*
X8510752Y-6551200D01*
X8501229Y-6541676D01*
X8501229Y-6560724D01*
X8625038Y-6741676D02*
X8605990Y-6732152D01*
X8596467Y-6713105D01*
X8596467Y-6541676D01*
X8729800Y-6741676D02*
X8710752Y-6732152D01*
X8701229Y-6713105D01*
X8701229Y-6541676D01*
X8958371Y-6741676D02*
X8958371Y-6541676D01*
X9025038Y-6684533D01*
X9091705Y-6541676D01*
X9091705Y-6741676D01*
X9272657Y-6741676D02*
X9272657Y-6636914D01*
X9263133Y-6617867D01*
X9244086Y-6608343D01*
X9205990Y-6608343D01*
X9186943Y-6617867D01*
X9272657Y-6732152D02*
X9253610Y-6741676D01*
X9205990Y-6741676D01*
X9186943Y-6732152D01*
X9177419Y-6713105D01*
X9177419Y-6694057D01*
X9186943Y-6675009D01*
X9205990Y-6665486D01*
X9253610Y-6665486D01*
X9272657Y-6655962D01*
X9367895Y-6608343D02*
X9367895Y-6808343D01*
X9367895Y-6617867D02*
X9386943Y-6608343D01*
X9425038Y-6608343D01*
X9444086Y-6617867D01*
X9453610Y-6627390D01*
X9463133Y-6646438D01*
X9463133Y-6703581D01*
X9453610Y-6722628D01*
X9444086Y-6732152D01*
X9425038Y-6741676D01*
X9386943Y-6741676D01*
X9367895Y-6732152D01*
X9548848Y-6722628D02*
X9558371Y-6732152D01*
X9548848Y-6741676D01*
X9539324Y-6732152D01*
X9548848Y-6722628D01*
X9548848Y-6741676D01*
X9548848Y-6617867D02*
X9558371Y-6627390D01*
X9548848Y-6636914D01*
X9539324Y-6627390D01*
X9548848Y-6617867D01*
X9548848Y-6636914D01*
M02*
