%TF.GenerationSoftware,KiCad,Pcbnew,7.0.8*%
%TF.CreationDate,2023-11-28T16:15:57+00:00*%
%TF.ProjectId,MHI-AC-CTRL,4d48492d-4143-42d4-9354-524c2e6b6963,v2.3*%
%TF.SameCoordinates,Original*%
%TF.FileFunction,Soldermask,Bot*%
%TF.FilePolarity,Negative*%
%FSLAX46Y46*%
G04 Gerber Fmt 4.6, Leading zero omitted, Abs format (unit mm)*
G04 Created by KiCad (PCBNEW 7.0.8) date 2023-11-28 16:15:57*
%MOMM*%
%LPD*%
G01*
G04 APERTURE LIST*
G04 Aperture macros list*
%AMRoundRect*
0 Rectangle with rounded corners*
0 $1 Rounding radius*
0 $2 $3 $4 $5 $6 $7 $8 $9 X,Y pos of 4 corners*
0 Add a 4 corners polygon primitive as box body*
4,1,4,$2,$3,$4,$5,$6,$7,$8,$9,$2,$3,0*
0 Add four circle primitives for the rounded corners*
1,1,$1+$1,$2,$3*
1,1,$1+$1,$4,$5*
1,1,$1+$1,$6,$7*
1,1,$1+$1,$8,$9*
0 Add four rect primitives between the rounded corners*
20,1,$1+$1,$2,$3,$4,$5,0*
20,1,$1+$1,$4,$5,$6,$7,0*
20,1,$1+$1,$6,$7,$8,$9,0*
20,1,$1+$1,$8,$9,$2,$3,0*%
G04 Aperture macros list end*
%ADD10R,2.500000X1.500000*%
%ADD11O,2.500000X1.500000*%
%ADD12R,1.700000X1.700000*%
%ADD13O,1.700000X1.700000*%
%ADD14C,1.700000*%
%ADD15RoundRect,0.250000X0.725000X-0.600000X0.725000X0.600000X-0.725000X0.600000X-0.725000X-0.600000X0*%
%ADD16O,1.950000X1.700000*%
%ADD17R,2.000000X2.000000*%
%ADD18O,1.600000X2.000000*%
%ADD19C,1.600000*%
%ADD20O,1.600000X1.600000*%
%ADD21O,2.000000X2.000000*%
%ADD22C,1.800000*%
%ADD23R,1.800000X1.700000*%
G04 APERTURE END LIST*
D10*
%TO.C,U1*%
X99669600Y-55270400D03*
D11*
X99669600Y-52730400D03*
X99669600Y-50190400D03*
%TD*%
D12*
%TO.C,U3*%
X104140000Y-46990000D03*
D13*
X106680000Y-46990000D03*
X109220000Y-46990000D03*
X111760000Y-46990000D03*
X114300000Y-46990000D03*
X116840000Y-46990000D03*
D14*
X104140000Y-57150000D03*
D13*
X106680000Y-57150000D03*
X109220000Y-57150000D03*
X111760000Y-57150000D03*
X114300000Y-57150000D03*
X116840000Y-57150000D03*
%TD*%
D15*
%TO.C,J3*%
X84323600Y-44450000D03*
D16*
X84323600Y-41950000D03*
X84323600Y-39450000D03*
%TD*%
D17*
%TO.C,U2*%
X93980000Y-62230000D03*
D18*
X96520000Y-62230000D03*
X99060000Y-62230000D03*
X101600000Y-62230000D03*
X104140000Y-62230000D03*
X106680000Y-62230000D03*
X109220000Y-62230000D03*
X111760000Y-62230000D03*
X111760000Y-39370000D03*
X109220000Y-39370000D03*
X106680000Y-39370000D03*
X104140000Y-39370000D03*
X101600000Y-39370000D03*
X99060000Y-39370000D03*
X96520000Y-39370000D03*
X93980000Y-39370000D03*
%TD*%
D19*
%TO.C,C3*%
X111760000Y-43180000D03*
X109260000Y-43180000D03*
%TD*%
%TO.C,R1*%
X93980000Y-43815000D03*
D20*
X104140000Y-43815000D03*
%TD*%
D17*
%TO.C,C1*%
X90119200Y-41979200D03*
D21*
X90119200Y-56979200D03*
%TD*%
D19*
%TO.C,C2*%
X87630000Y-60401200D03*
X90130000Y-60401200D03*
%TD*%
D22*
%TO.C,J1*%
X83786200Y-50452000D03*
X83786200Y-52952000D03*
X83786200Y-55452000D03*
X83786200Y-57952000D03*
D23*
X83786200Y-60452000D03*
%TD*%
M02*
